<?xml version="1.0" encoding="iso-8859-1"?>
<svg xmlns="http://www.w3.org/2000/svg" xmlns:xlink="http://www.w3.org/1999/xlink" version="1.1" id="Capa_1" x="0px" y="0px" viewBox="-3.63064 -66.0327 1030.76 962.035" xml:space="preserve" >
<link xmlns="http://www.w3.org/1999/xhtml" rel="stylesheet" href="svgstyles.css" type="text/css"/>
<g>
  <path d="M800 687.712h64c17.6641 0 32 14.3359 32 32v32c0 17.6641 -14.3359 32 -32 32h-64c-17.6641 0 -32 -14.3359 -32 -32v-32c0 -17.6641 14.3359 -32 32 -32zM800 495.712h64c17.6641 0 32 14.3359 32 32v32c0 17.6641 -14.3359 32 -32 32h-64 c-17.6641 0 -32 -14.3359 -32 -32v-32c0 -17.6641 14.3359 -32 32 -32zM800 303.712h64c17.6641 0 32 14.3359 32 32v32c0 17.6641 -14.3359 32 -32 32h-64c-17.6641 0 -32 -14.3359 -32 -32v-32c0 -17.6641 14.3359 -32 32 -32zM800 111.712h64c17.6641 0 32 14.3359 32 32 v32c0 17.6641 -14.3359 32 -32 32h-64c-17.6641 0 -32 -14.3359 -32 -32v-32c0 -17.6641 14.3359 -32 32 -32zM160 687.712h64c17.6641 0 32 14.3359 32 32v32c0 17.6641 -14.3359 32 -32 32h-64c-17.6641 0 -32 -14.3359 -32 -32v-32c0 -17.6641 14.3359 -32 32 -32z M160 495.712h64c17.6641 0 32 14.3359 32 32v32c0 17.6641 -14.3359 32 -32 32h-64c-17.6641 0 -32 -14.3359 -32 -32v-32c0 -17.6641 14.3359 -32 32 -32zM160 303.712h64c17.6641 0 32 14.3359 32 32v32c0 17.6641 -14.3359 32 -32 32h-64 c-17.6641 0 -32 -14.3359 -32 -32v-32c0 -17.6641 14.3359 -32 32 -32zM160 111.712h64c17.6641 0 32 14.3359 32 32v32c0 17.6641 -14.3359 32 -32 32h-64c-17.6641 0 -32 -14.3359 -32 -32v-32c0 -17.6641 14.3359 -32 32 -32zM960 944.096h-896 c-35.1836 0 -64 -28.8164 -64 -64v-864.192c0 -35.1836 28.8164 -64 64 -64h896c35.1836 0 64 28.8164 64 64v864.192c0 35.1836 -28.8164 64 -64 64zM960 15.9033h-896v864.192h896v-864.192z"/>
</g>
</svg>
